<svg width="1200" height="520" viewBox="0 0 1200 520" fill="none" xmlns="http://www.w3.org/2000/svg">
  <defs>
    <linearGradient id="g1" x1="1200" y1="0" x2="780" y2="360" gradientUnits="userSpaceOnUse">
      <stop stop-color="#38BDF8" stop-opacity="0.65"/>
      <stop offset="1" stop-color="#2563EB" stop-opacity="0"/>
    </linearGradient>
    <radialGradient id="g2" cx="0" cy="0" r="1" gradientUnits="userSpaceOnUse" gradientTransform="translate(970 120) rotate(90) scale(190 190)">
      <stop stop-color="#60A5FA" stop-opacity="0.5"/>
      <stop offset="1" stop-color="#60A5FA" stop-opacity="0"/>
    </radialGradient>
  </defs>

  <circle cx="980" cy="130" r="195" stroke="url(#g1)" stroke-opacity="0.55" stroke-width="1.4"/>
  <circle cx="980" cy="130" r="150" stroke="url(#g1)" stroke-opacity="0.45" stroke-width="1.2"/>
  <circle cx="980" cy="130" r="106" stroke="url(#g1)" stroke-opacity="0.35" stroke-width="1.1"/>
  <ellipse cx="980" cy="130" rx="195" ry="84" stroke="#60A5FA" stroke-opacity="0.35" stroke-width="1.2"/>
  <ellipse cx="980" cy="130" rx="120" ry="188" transform="rotate(20 980 130)" stroke="#38BDF8" stroke-opacity="0.24" stroke-width="1.2"/>
  <ellipse cx="980" cy="130" rx="120" ry="188" transform="rotate(-22 980 130)" stroke="#38BDF8" stroke-opacity="0.2" stroke-width="1.2"/>
  <circle cx="980" cy="130" r="190" fill="url(#g2)"/>

  <path d="M820 220 C860 180 910 176 952 198" stroke="#7DD3FC" stroke-opacity="0.42" stroke-width="1.4"/>
  <path d="M860 248 C908 198 980 196 1032 230" stroke="#93C5FD" stroke-opacity="0.34" stroke-width="1.4"/>
  <path d="M924 270 C980 222 1060 222 1120 270" stroke="#60A5FA" stroke-opacity="0.28" stroke-width="1.4"/>

  <g opacity="0.88">
    <circle cx="858" cy="248" r="3.4" fill="#BAE6FD"/>
    <circle cx="930" cy="206" r="3.2" fill="#93C5FD"/>
    <circle cx="1002" cy="216" r="3.6" fill="#BFDBFE"/>
    <circle cx="1084" cy="258" r="3.2" fill="#93C5FD"/>
  </g>

  <g opacity="0.32" stroke="#93C5FD" stroke-width="1.4" fill="none">
    <rect x="842" y="58" width="34" height="30" rx="5"/>
    <path d="M850 50V64M868 50V64M842 70H876"/>
    <rect x="1040" y="74" width="34" height="30" rx="5"/>
    <path d="M1048 66V80M1066 66V80M1040 86H1074"/>
    <rect x="1126" y="146" width="34" height="30" rx="5"/>
    <path d="M1134 138V152M1152 138V152M1126 158H1160"/>
  </g>
</svg>
